<?xml version="1.0" encoding="utf-8"?>
<!-- Generator: Adobe Illustrator 22.0.1, SVG Export Plug-In . SVG Version: 6.00 Build 0)  -->
<svg version="1.1" id="Laag_1" xmlns="http://www.w3.org/2000/svg" xmlns:xlink="http://www.w3.org/1999/xlink" x="0px" y="0px"
	 viewBox="0 0 595 622.5" style="enable-background:new 0 0 595 622.5;" xml:space="preserve">
<style type="text/css">
	.st0{fill:url(#SVGID_1_);}
	.st1{fill:url(#SVGID_2_);}
</style>
<g>
	<linearGradient id="SVGID_1_" gradientUnits="userSpaceOnUse" x1="375.1842" y1="40.1911" x2="209.6102" y2="276.6553">
		<stop  offset="0" style="stop-color:#00C5CD"/>
		<stop  offset="1" style="stop-color:#43CD80"/>
	</linearGradient>
	<path class="st0" d="M293.6,309c1.4,0,2.8,0,4.2-0.1l0,0c75.4-2.7,135.8-79,135.8-154.9c0-30.9-10-59.4-26.9-82.6
		C381.2,36.6,340,14,293.6,14c-77.3,0-140,62.7-140,140S216.3,309,293.6,309z"/>
	<linearGradient id="SVGID_2_" gradientUnits="userSpaceOnUse" x1="433.0524" y1="324.0001" x2="176.0889" y2="690.982">
		<stop  offset="0" style="stop-color:#00C5CD"/>
		<stop  offset="1" style="stop-color:#43CD80"/>
	</linearGradient>
	<path class="st1" d="M440.5,329.5c-15.5-9.9-34.5-12.6-52.1-7.2c-30,9.3-61.8,14.2-94.8,14.2c-2.8,0-5.6,0-8.4-0.1
		c-30-0.8-59-5.7-86.4-14.1c-17.6-5.4-36.6-2.7-52.1,7.2C71.2,377.9,21.1,462.6,21.1,559c0,24.9,20.1,45,45,45h96.5h358.5
		c24.9,0,45-20.1,45-45C566.1,462.6,516.1,377.9,440.5,329.5z"/>
</g>
</svg>
