<?xml version="1.0" encoding="utf-8"?>
<!-- Generator: Adobe Illustrator 22.0.1, SVG Export Plug-In . SVG Version: 6.00 Build 0)  -->
<svg version="1.1" id="Laag_1" xmlns="http://www.w3.org/2000/svg" xmlns:xlink="http://www.w3.org/1999/xlink" x="0px" y="0px"
	 viewBox="0 0 595 622.5" style="enable-background:new 0 0 595 622.5;" xml:space="preserve">
<style type="text/css">
	.st0{fill:#313131;}
	.st1{fill:#282828;}
	.st2{fill:#FFFFFF;}
</style>
<g>
	<path class="st0" d="M198.8,322.3c-17.6-5.4-36.6-2.7-52.1,7.2C71.2,377.9,21.1,462.6,21.1,559c0,24.9,20.1,45,45,45h96.5
		l122.6-267.6C255.2,335.6,226.2,330.7,198.8,322.3z"/>
	<path class="st0" d="M293.6,309c1.4,0,2.8,0,4.2-0.1L406.7,71.4C381.2,36.6,340,14,293.6,14c-77.3,0-140,62.7-140,140
		S216.3,309,293.6,309z"/>
	<path class="st1" d="M440.5,329.5c-15.5-9.9-34.5-12.6-52.1-7.2c-30,9.3-61.8,14.2-94.8,14.2c-2.8,0-5.6,0-8.4-0.1L162.6,604h358.5
		c24.9,0,45-20.1,45-45C566.1,462.6,516.1,377.9,440.5,329.5z"/>
	<path class="st1" d="M433.6,154c0-30.9-10-59.4-26.9-82.6L297.8,308.9C373.2,306.2,433.6,229.9,433.6,154z"/>
</g>
<g>
	<path class="st2" d="M488.9,357.4v-97.7c0-2.3-1.9-4.2-4.2-4.2h-45.8c-2.3,0-4.2,1.9-4.2,4.2v97.7c0,2.3-1.9,4.2-4.2,4.2h-97.7
		c-2.3,0-4.2,1.9-4.2,4.2v45.8c0,2.3,1.9,4.2,4.2,4.2h97.7c2.3,0,4.2,1.9,4.2,4.2v97.7c0,2.3,1.9,4.2,4.2,4.2h45.8
		c2.3,0,4.2-1.9,4.2-4.2V420c0-2.3,1.9-4.2,4.2-4.2h97.7c2.3,0,4.2-1.9,4.2-4.2v-45.8c0-2.3-1.9-4.2-4.2-4.2h-97.7
		C490.8,361.5,488.9,359.7,488.9,357.4z M585.1,409.5h-98.2c-2.3,0-4.2,1.9-4.2,4.2v98.2c0,2.3-1.9,4.2-4.2,4.2h-33.4
		c-2.3,0-4.2-1.9-4.2-4.2v-98.2c0-2.3-1.9-4.2-4.2-4.2h-98.2c-2.3,0-4.2-1.9-4.2-4.2v-33.4c0-2.3,1.9-4.2,4.2-4.2h98.2
		c2.3,0,4.2-1.9,4.2-4.2v-98.2c0-2.3,1.9-4.2,4.2-4.2h33.4c2.3,0,4.2,1.9,4.2,4.2v98.2c0,2.3,1.9,4.2,4.2,4.2h98.2
		c2.3,0,4.2,1.9,4.2,4.2v33.4C589.3,407.7,587.4,409.5,585.1,409.5z"/>
	<path class="st1" d="M478.6,261.2h-33.4c-2.3,0-4.2,1.9-4.2,4.2v98.2c0,2.3-1.9,4.2-4.2,4.2h-98.2c-2.3,0-4.2,1.9-4.2,4.2v33.4
		c0,2.3,1.9,4.2,4.2,4.2h98.2c2.3,0,4.2,1.9,4.2,4.2V512c0,2.3,1.9,4.2,4.2,4.2h33.4c2.3,0,4.2-1.9,4.2-4.2v-98.2
		c0-2.3,1.9-4.2,4.2-4.2h98.2c2.3,0,4.2-1.9,4.2-4.2V372c0-2.3-1.9-4.2-4.2-4.2H487c-2.3,0-4.2-1.9-4.2-4.2v-98.2
		C482.7,263.1,480.9,261.2,478.6,261.2z"/>
</g>
</svg>
