<?xml version="1.0" encoding="utf-8"?>
<!-- Generator: Adobe Illustrator 22.0.1, SVG Export Plug-In . SVG Version: 6.00 Build 0)  -->
<svg version="1.1" id="Laag_1" xmlns="http://www.w3.org/2000/svg" xmlns:xlink="http://www.w3.org/1999/xlink" x="0px" y="0px"
	 viewBox="0 0 595 622.5" style="enable-background:new 0 0 595 622.5;" xml:space="preserve">
<style type="text/css">
	.st0{fill:url(#SVGID_1_);}
	.st1{fill:url(#SVGID_2_);}
	.st2{fill:none;}
	.st3{fill:#FFFFFF;}
	.st4{fill:url(#SVGID_3_);}
	.st5{fill:url(#SVGID_4_);}
	.st6{fill:url(#SVGID_5_);}
	.st7{fill:url(#SVGID_6_);}
	.st8{fill:url(#SVGID_7_);}
	.st9{fill:url(#SVGID_8_);}
	.st10{fill:url(#SVGID_9_);}
	.st11{fill:url(#SVGID_10_);}
	.st12{fill:url(#SVGID_11_);}
	.st13{fill:url(#SVGID_12_);}
	.st14{fill:url(#SVGID_13_);}
	.st15{fill:url(#SVGID_14_);}
	.st16{fill:url(#SVGID_15_);}
	.st17{fill:url(#SVGID_16_);}
	.st18{fill:url(#SVGID_17_);}
	.st19{fill:url(#SVGID_18_);}
	.st20{fill:url(#SVGID_19_);}
	.st21{fill:url(#SVGID_20_);}
	.st22{fill:url(#SVGID_21_);}
	.st23{fill:url(#SVGID_22_);}
	.st24{fill:url(#SVGID_23_);}
</style>
<g>
	
		<linearGradient id="SVGID_1_" gradientUnits="userSpaceOnUse" x1="375.1842" y1="583.8089" x2="209.6102" y2="347.3447" gradientTransform="matrix(1 0 0 -1 0 624)">
		<stop  offset="0" style="stop-color:#00C5CD"/>
		<stop  offset="1" style="stop-color:#43CD80"/>
	</linearGradient>
	<path class="st0" d="M293.6,309c1.4,0,2.8,0,4.2-0.1l0,0c75.4-2.7,135.8-79,135.8-154.9c0-30.9-10-59.4-26.9-82.6
		C381.2,36.6,340,14,293.6,14c-77.3,0-140,62.7-140,140S216.3,309,293.6,309z"/>
	
		<linearGradient id="SVGID_2_" gradientUnits="userSpaceOnUse" x1="433.0524" y1="299.9999" x2="176.0889" y2="-66.982" gradientTransform="matrix(1 0 0 -1 0 624)">
		<stop  offset="0" style="stop-color:#00C5CD"/>
		<stop  offset="1" style="stop-color:#43CD80"/>
	</linearGradient>
	<path class="st1" d="M440.5,329.5c-15.5-9.9-34.5-12.6-52.1-7.2c-30,9.3-61.8,14.2-94.8,14.2c-2.8,0-5.6,0-8.4-0.1
		c-30-0.8-59-5.7-86.4-14.1c-17.6-5.4-36.6-2.7-52.1,7.2C71.2,377.9,21.1,462.6,21.1,559c0,24.9,20.1,45,45,45h96.5h358.5
		c24.9,0,45-20.1,45-45C566.1,462.6,516.1,377.9,440.5,329.5z"/>
</g>
<g>
	<path class="st2" d="M438.6,412.2c0.2,0.5,0.3,1,0.3,1.6v0C438.9,413.2,438.8,412.7,438.6,412.2z"/>
	<path class="st2" d="M478.5,261.7c-0.6-0.3-1.2-0.5-1.9-0.5c1.4,0,2.6,0.8,3.4,1.9c0,0,0,0,0,0c0,0,0,0,0,0c0,0,0,0,0,0
		c0,0,0,0,0,0C479.6,262.6,479.1,262.1,478.5,261.7z"/>
	<path class="st2" d="M333.6,408.3L333.6,408.3C333.6,408.3,333.6,408.3,333.6,408.3c-0.8-0.8-1.3-1.8-1.3-3v-33.4
		c0-2.3,1.9-4.2,4.2-4.2h0c-2.3,0-4.2,1.9-4.2,4.2v33.4C332.3,406.5,332.8,407.5,333.6,408.3c0.8,0.8,1.8,1.3,3,1.3h0
		C335.4,409.6,334.4,409.1,333.6,408.3L333.6,408.3z"/>
	<path class="st2" d="M480,263.1c-0.7-1.2-2-2-3.5-2c0.7,0,1.4,0.2,2,0.6C479.1,262,479.6,262.5,480,263.1z"/>
	<path class="st2" d="M484.9,409.5c-1.2,0-2.2,0.5-3,1.2C482.7,410,483.8,409.5,484.9,409.5l98.2,0c0.5,0,1-0.1,1.4-0.2
		c-0.4,0.2-0.9,0.2-1.4,0.2H484.9z"/>
	<path class="st2" d="M586.1,408.3c-0.3,0.3-0.6,0.5-1,0.7C585.5,408.8,585.8,408.6,586.1,408.3z"/>
	<path class="st2" d="M332.7,407c0,0,0,0.1,0.1,0.1C332.8,407.1,332.8,407,332.7,407z"/>
	<path class="st2" d="M336.5,409.5h98.2c1.2,0,2.2,0.5,3,1.3v0c-0.8-0.8-1.8-1.3-3-1.3L336.5,409.5c-1.1,0-2.1-0.5-2.9-1.2v0
		C334.4,409,335.4,409.5,336.5,409.5z"/>
	<path class="st2" d="M438.9,363.5v-98.2c0-1.1,0.5-2.2,1.2-3c-0.8,0.8-1.2,1.8-1.2,3L438.9,363.5c0,2.3-1.9,4.2-4.2,4.2h0
		C437,367.7,438.9,365.8,438.9,363.5z"/>
	<path class="st2" d="M476.5,516.1c1.2,0,2.2-0.5,3-1.2C478.7,515.7,477.7,516.1,476.5,516.1l-33.4,0c-1.1,0-2.1-0.5-2.9-1.2l0,0
		c0,0,0,0,0,0c0.8,0.7,1.8,1.2,2.9,1.2H476.5z"/>
	<path class="st2" d="M583.1,367.7h-98.2c-1.1,0-2.1-0.5-2.9-1.2c-0.7-0.8-1.2-1.8-1.2-2.9v-98.2c0,0,0,0,0,0c0,0,0,0,0,0v98.2
		c0,1.1,0.5,2.1,1.2,2.9c0,0,0,0,0,0c0,0,0,0,0,0c0.8,0.7,1.8,1.2,2.9,1.2L583.1,367.7c1.2,0,2.2,0.5,3,1.3c0,0,0,0,0,0c0,0,0,0,0,0
		c0.8,0.8,1.3,1.8,1.3,3v33.4l0,0V372c0-1.2-0.5-2.2-1.3-3C585.3,368.2,584.3,367.7,583.1,367.7z"/>
	<path class="st2" d="M438.9,511.9L438.9,511.9c0,1.2,0.5,2.2,1.3,3c0,0,0,0,0,0C439.4,514.1,438.9,513.1,438.9,511.9z"/>
	<path class="st2" d="M439,512v-98.2c0-1.2-0.5-2.2-1.3-3c0.4,0.4,0.6,0.8,0.9,1.3c0.2,0.5,0.3,1,0.3,1.6v0L439,512
		c-0.1,1.1,0.4,2.1,1.2,2.9C439.5,514.1,439,513.1,439,512z"/>
	<path class="st2" d="M583.2,367.8c1.1,0,2.1,0.5,2.9,1.2C585.3,368.2,584.3,367.7,583.2,367.8l-98.3-0.1c-1.1,0-2.1-0.5-2.9-1.2
		c0.8,0.8,1.8,1.3,3,1.3H583.2z"/>
	<polygon class="st2" points="333.6,408.3 333.6,408.3 333.6,408.3 	"/>
	<path class="st2" d="M478.5,261.7c0.6,0.3,1.1,0.8,1.5,1.4c0,0,0,0,0,0C479.6,262.5,479.1,262,478.5,261.7z"/>
	<path class="st2" d="M332.3,371.9v33.4c0,1.2,0.5,2.2,1.3,3c-0.3-0.4-0.6-0.8-0.8-1.2c0,0,0-0.1-0.1-0.1c-0.2-0.5-0.3-1-0.3-1.6
		L332.3,371.9c0.1-2.2,2-4.1,4.3-4.1h98.2c2.3,0,4.2-1.9,4.2-4.2v-98.2v0c0-2.3,1.9-4.2,4.2-4.2h33.4c0,0,0,0,0,0
		c0.7,0,1.3,0.2,1.9,0.5c-0.6-0.4-1.3-0.6-2-0.6c0,0,0,0,0,0h-33.4c-1.1,0-2.2,0.5-3,1.2s-1.2,1.8-1.2,3v98.2c0,2.3-1.9,4.2-4.2,4.2
		h0h-98.2C334.2,367.7,332.3,369.6,332.3,371.9z"/>
	<path class="st3" d="M588.8,361.6h-97.7c-2.3-0.1-4.2-1.9-4.2-4.2v-97.7c0-2.3-1.9-4.2-4.2-4.2h-45.8c-2.3,0-4.2,1.9-4.2,4.2v97.7
		c0,2.3-1.9,4.2-4.2,4.2h-97.7c-2.3,0-4.2,1.9-4.2,4.2v45.8c0,2.3,1.9,4.2,4.2,4.2h97.7c2.3,0,4.2,1.9,4.2,4.2v97.7
		c0,2.3,1.9,4.2,4.2,4.2h45.8c2.3,0,4.2-1.9,4.2-4.2V420c0-2.3,1.9-4.2,4.2-4.2h97.7c2.3,0,4.2-1.9,4.2-4.2v-45.8
		C593,363.5,591.1,361.6,588.8,361.6z M587.4,405.4L587.4,405.4c0,2.3-1.9,4.2-4.2,4.2H485c-2.3,0-4.2,1.9-4.2,4.2V512
		c0,2.3-1.9,4.2-4.2,4.2h-33.4h0c-1.2,0-2.2-0.5-3-1.3c0,0,0,0,0,0c0,0,0,0,0,0l0,0l0,0c0,0,0,0,0,0c-0.8-0.8-1.3-1.8-1.3-3v0v-98.2
		c0-0.6-0.1-1.1-0.3-1.6c-0.2-0.5-0.5-0.9-0.9-1.3c0,0,0,0,0,0c-0.8-0.7-1.8-1.2-2.9-1.2h-98.2h0c-1.2,0-2.2-0.5-3-1.3
		s-1.3-1.8-1.3-3v-33.4c0-2.3,1.9-4.2,4.2-4.2h0h98.2c2.3,0,4.2-1.9,4.2-4.2v-98.2c0-1.2,0.5-2.2,1.2-3s1.8-1.2,3-1.2h33.4
		c0,0,0,0,0,0c1.5,0,2.8,0.8,3.5,2c0,0,0,0,0,0c0,0,0,0,0,0c0,0,0,0,0,0c0,0,0,0,0,0c0.5,0.6,0.8,1.4,0.8,2.3c0,0,0,0,0,0v98.2
		c0,1.1,0.5,2.1,1.2,2.9c0.8,0.7,1.8,1.2,2.9,1.2h98.2c1.2,0,2.2,0.5,3,1.3c0.8,0.8,1.3,1.8,1.3,3V405.4z"/>
	<polygon class="st3" points="480,263.1 480,263.1 480,263.1 	"/>
	<path class="st3" d="M476.5,261.1C476.5,261.1,476.5,261.1,476.5,261.1C476.5,261.1,476.5,261.1,476.5,261.1l-33.4,0
		c-1.2,0-2.2,0.5-3,1.2c0.8-0.8,1.8-1.2,3-1.2H476.5z"/>
	
		<linearGradient id="SVGID_3_" gradientUnits="userSpaceOnUse" x1="333.7512" y1="215.8725" x2="333.453" y2="215.4466" gradientTransform="matrix(1 0 0 -1 0 624)">
		<stop  offset="0" style="stop-color:#00C5CD"/>
		<stop  offset="1" style="stop-color:#43CD80"/>
	</linearGradient>
	<polygon class="st4" points="333.6,408.3 333.6,408.3 333.6,408.3 	"/>
	
		<linearGradient id="SVGID_4_" gradientUnits="userSpaceOnUse" x1="482.7361" y1="258.5074" x2="481.2687" y2="256.4117" gradientTransform="matrix(1 0 0 -1 0 624)">
		<stop  offset="0" style="stop-color:#00C5CD"/>
		<stop  offset="1" style="stop-color:#43CD80"/>
	</linearGradient>
	<polygon class="st5" points="482,366.5 482,366.5 482,366.5 482,366.5 	"/>
	
		<linearGradient id="SVGID_5_" gradientUnits="userSpaceOnUse" x1="525.6436" y1="329.2475" x2="394.0603" y2="141.327" gradientTransform="matrix(1 0 0 -1 0 624)">
		<stop  offset="0" style="stop-color:#00C5CD"/>
		<stop  offset="1" style="stop-color:#43CD80"/>
	</linearGradient>
	<path class="st6" d="M476.5,516.1c1.1,0,2.2-0.5,3-1.2s1.2-1.8,1.2-3v-98.2c0-1.2,0.5-2.2,1.2-3s1.8-1.2,3-1.2h98.2
		c0.5,0,1-0.1,1.4-0.2c0.2-0.1,0.4-0.2,0.6-0.3c0.3-0.2,0.7-0.4,1-0.7c0.8-0.8,1.2-1.8,1.2-3v-33.4c0-1.1-0.5-2.1-1.2-2.9
		c0,0,0,0,0,0c0,0,0,0,0,0c0,0,0,0,0,0c0,0,0,0,0,0c-0.8-0.7-1.8-1.2-2.9-1.2H485c-1.2,0-2.2-0.5-3-1.3s-1.3-1.8-1.3-3v0v-98.2
		c0-0.8-0.3-1.5-0.7-2.2c0,0,0,0,0,0c0,0,0,0,0,0c-0.8-1.1-2-1.9-3.4-1.9c0,0,0,0,0,0h-33.4c-2.3,0-4.2,1.9-4.2,4.2v98.2v0
		c0,2.3-1.9,4.2-4.2,4.2h-98.2c-2.3,0-4.2,1.9-4.2,4.2v33.4c0,0.5,0.1,1.1,0.3,1.6c0,0,0,0.1,0.1,0.1c0.2,0.4,0.5,0.9,0.8,1.2
		c0.8,0.7,1.8,1.2,2.9,1.2h98.2c1.2,0,2.2,0.5,3,1.3v0h0c0.8,0.8,1.3,1.8,1.3,3V512c0,1.1,0.5,2.1,1.2,2.9c0,0,0,0,0,0c0,0,0,0,0,0
		c0,0,0,0,0,0c0.8,0.7,1.8,1.2,2.9,1.2H476.5z"/>
	
		<linearGradient id="SVGID_6_" gradientUnits="userSpaceOnUse" x1="546.4719" y1="314.6636" x2="414.8885" y2="126.7429" gradientTransform="matrix(1 0 0 -1 0 624)">
		<stop  offset="0" style="stop-color:#00C5CD"/>
		<stop  offset="1" style="stop-color:#43CD80"/>
	</linearGradient>
	<path class="st7" d="M439,512c0,1.1,0.5,2.1,1.2,2.9c0,0,0,0,0,0C439.5,514.1,439,513.1,439,512l0-98.2c0-1.2-0.5-2.2-1.3-3
		c0,0,0,0,0,0c0.8,0.8,1.3,1.8,1.3,3V512z"/>
	
		<linearGradient id="SVGID_7_" gradientUnits="userSpaceOnUse" x1="565.6026" y1="301.2681" x2="434.0192" y2="113.3475" gradientTransform="matrix(1 0 0 -1 0 624)">
		<stop  offset="0" style="stop-color:#00C5CD"/>
		<stop  offset="1" style="stop-color:#43CD80"/>
	</linearGradient>
	<path class="st8" d="M485,367.8h98.2c1.1,0,2.1,0.5,2.9,1.2c0,0,0,0,0,0c-0.8-0.7-1.8-1.2-2.9-1.2L485,367.8c-1.2,0-2.2-0.5-3-1.3
		c0,0,0,0,0,0C482.8,367.3,483.8,367.8,485,367.8z"/>
	
		<linearGradient id="SVGID_8_" gradientUnits="userSpaceOnUse" x1="465.0575" y1="371.6705" x2="333.4741" y2="183.7499" gradientTransform="matrix(1 0 0 -1 0 624)">
		<stop  offset="0" style="stop-color:#00C5CD"/>
		<stop  offset="1" style="stop-color:#43CD80"/>
	</linearGradient>
	<path class="st9" d="M443.2,261.2c-2.3,0-4.2,1.9-4.2,4.2v0C439,263.1,440.9,261.2,443.2,261.2l33.4,0c0,0,0,0,0,0c0,0,0,0,0,0
		H443.2z"/>
	
		<linearGradient id="SVGID_9_" gradientUnits="userSpaceOnUse" x1="466.0817" y1="370.9534" x2="334.4983" y2="183.0327" gradientTransform="matrix(1 0 0 -1 0 624)">
		<stop  offset="0" style="stop-color:#00C5CD"/>
		<stop  offset="1" style="stop-color:#43CD80"/>
	</linearGradient>
	<path class="st10" d="M434.8,367.8h-98.2c-2.3,0-4.2,1.9-4.2,4.2v33.4c0,0.6,0.1,1.1,0.3,1.6c-0.2-0.5-0.3-1-0.3-1.6V372
		c0-2.3,1.9-4.2,4.2-4.2L434.8,367.8c2.3,0,4.2-1.9,4.2-4.2v0C439,365.9,437.1,367.8,434.8,367.8z"/>
	
		<linearGradient id="SVGID_10_" gradientUnits="userSpaceOnUse" x1="449.5917" y1="382.4998" x2="318.0083" y2="194.5791" gradientTransform="matrix(1 0 0 -1 0 624)">
		<stop  offset="0" style="stop-color:#00C5CD"/>
		<stop  offset="1" style="stop-color:#43CD80"/>
	</linearGradient>
	<path class="st11" d="M333.6,408.3L333.6,408.3c-0.3-0.4-0.6-0.8-0.8-1.2C333,407.6,333.3,408,333.6,408.3
		C333.6,408.3,333.6,408.3,333.6,408.3z"/>
	<polygon class="st3" points="437.7,410.8 437.7,410.8 437.7,410.8 	"/>
	
		<linearGradient id="SVGID_11_" gradientUnits="userSpaceOnUse" x1="437.8513" y1="213.3723" x2="437.5531" y2="212.9465" gradientTransform="matrix(1 0 0 -1 0 624)">
		<stop  offset="0" style="stop-color:#00C5CD"/>
		<stop  offset="1" style="stop-color:#43CD80"/>
	</linearGradient>
	<polygon class="st12" points="437.7,410.8 437.7,410.8 437.7,410.8 	"/>
	<polygon class="st3" points="440.2,514.9 440.2,514.9 440.2,514.9 	"/>
	
		<linearGradient id="SVGID_12_" gradientUnits="userSpaceOnUse" x1="440.3512" y1="109.2725" x2="440.053" y2="108.8466" gradientTransform="matrix(1 0 0 -1 0 624)">
		<stop  offset="0" style="stop-color:#00C5CD"/>
		<stop  offset="1" style="stop-color:#43CD80"/>
	</linearGradient>
	<polygon class="st13" points="440.2,514.9 440.2,514.9 440.2,514.9 	"/>
	<path class="st3" d="M434.7,409.5h-98.2c-1.1,0-2.1-0.5-2.9-1.2c0.8,0.8,1.8,1.3,3,1.3L434.7,409.5c1.2,0.1,2.2,0.6,3,1.3h0
		C436.9,410,435.9,409.5,434.7,409.5z"/>
	
		<linearGradient id="SVGID_13_" gradientUnits="userSpaceOnUse" x1="485.6971" y1="357.2884" x2="354.0459" y2="169.2709" gradientTransform="matrix(1 0 0 -1 0 624)">
		<stop  offset="0" style="stop-color:#00C5CD"/>
		<stop  offset="1" style="stop-color:#43CD80"/>
	</linearGradient>
	<path class="st14" d="M434.7,409.5h-98.2c-1.1,0-2.1-0.5-2.9-1.2c0.8,0.8,1.8,1.3,3,1.3L434.7,409.5c1.2,0.1,2.2,0.6,3,1.3h0
		C436.9,410,435.9,409.5,434.7,409.5z"/>
	<polygon class="st3" points="437.7,410.8 437.7,410.8 437.7,410.8 	"/>
	
		<linearGradient id="SVGID_14_" gradientUnits="userSpaceOnUse" x1="437.7825" y1="213.2741" x2="437.6218" y2="213.0447" gradientTransform="matrix(1 0 0 -1 0 624)">
		<stop  offset="0" style="stop-color:#00C5CD"/>
		<stop  offset="1" style="stop-color:#43CD80"/>
	</linearGradient>
	<polygon class="st15" points="437.7,410.8 437.7,410.8 437.7,410.8 	"/>
	<path class="st3" d="M586.1,369c0.7,0.8,1.2,1.8,1.2,2.9v33.4c0,1.2-0.5,2.3-1.2,3c-0.3,0.3-0.6,0.5-1,0.7
		c-0.2,0.1-0.4,0.2-0.6,0.3c-0.4,0.2-0.9,0.2-1.4,0.2h-98.2c-1.1,0-2.2,0.5-3,1.2c-0.8,0.8-1.2,1.8-1.2,3v98.2c0,1.2-0.5,2.2-1.2,3
		s-1.8,1.2-3,1.2h-33.4c-1.1,0-2.1-0.5-2.9-1.2c0.8,0.8,1.8,1.3,3,1.3h33.4c2.3,0,4.2-1.9,4.2-4.2v-98.2c0-2.3,1.9-4.2,4.2-4.2h98.2
		c2.3,0,4.2-1.9,4.2-4.2V372C587.4,370.8,586.9,369.8,586.1,369z"/>
	
		<linearGradient id="SVGID_15_" gradientUnits="userSpaceOnUse" x1="585.275" y1="287.5632" x2="453.6237" y2="99.5457" gradientTransform="matrix(1 0 0 -1 0 624)">
		<stop  offset="0" style="stop-color:#00C5CD"/>
		<stop  offset="1" style="stop-color:#43CD80"/>
	</linearGradient>
	<path class="st16" d="M586.1,369c0.7,0.8,1.2,1.8,1.2,2.9v33.4c0,1.2-0.5,2.3-1.2,3c-0.3,0.3-0.6,0.5-1,0.7
		c-0.2,0.1-0.4,0.2-0.6,0.3c-0.4,0.2-0.9,0.2-1.4,0.2h-98.2c-1.1,0-2.2,0.5-3,1.2c-0.8,0.8-1.2,1.8-1.2,3v98.2c0,1.2-0.5,2.2-1.2,3
		s-1.8,1.2-3,1.2h-33.4c-1.1,0-2.1-0.5-2.9-1.2c0.8,0.8,1.8,1.3,3,1.3h33.4c2.3,0,4.2-1.9,4.2-4.2v-98.2c0-2.3,1.9-4.2,4.2-4.2h98.2
		c2.3,0,4.2-1.9,4.2-4.2V372C587.4,370.8,586.9,369.8,586.1,369z"/>
	<path class="st3" d="M440.2,514.9c0.8,0.8,1.8,1.3,3,1.3h0C442,516.2,441,515.7,440.2,514.9C440.2,514.9,440.2,514.9,440.2,514.9z"
		/>
	
		<linearGradient id="SVGID_16_" gradientUnits="userSpaceOnUse" x1="573.111" y1="296.0806" x2="441.4597" y2="108.0631" gradientTransform="matrix(1 0 0 -1 0 624)">
		<stop  offset="0" style="stop-color:#00C5CD"/>
		<stop  offset="1" style="stop-color:#43CD80"/>
	</linearGradient>
	<path class="st17" d="M440.2,514.9c0.8,0.8,1.8,1.3,3,1.3h0C442,516.2,441,515.7,440.2,514.9C440.2,514.9,440.2,514.9,440.2,514.9z
		"/>
	<path class="st3" d="M587.3,371.9v33.4c0,1.2-0.5,2.2-1.2,3c0.8-0.8,1.2-1.8,1.2-3L587.3,371.9c0-1.1-0.5-2.1-1.2-2.9c0,0,0,0,0,0
		C586.8,369.8,587.3,370.8,587.3,371.9z"/>
	
		<linearGradient id="SVGID_17_" gradientUnits="userSpaceOnUse" x1="610.3969" y1="269.9727" x2="478.7456" y2="81.9553" gradientTransform="matrix(1 0 0 -1 0 624)">
		<stop  offset="0" style="stop-color:#00C5CD"/>
		<stop  offset="1" style="stop-color:#43CD80"/>
	</linearGradient>
	<path class="st18" d="M587.3,371.9v33.4c0,1.2-0.5,2.2-1.2,3c0.8-0.8,1.2-1.8,1.2-3L587.3,371.9c0-1.1-0.5-2.1-1.2-2.9c0,0,0,0,0,0
		C586.8,369.8,587.3,370.8,587.3,371.9z"/>
	<path class="st3" d="M585.1,409c-0.2,0.1-0.4,0.2-0.6,0.3C584.7,409.2,584.9,409.1,585.1,409z"/>
	
		<linearGradient id="SVGID_18_" gradientUnits="userSpaceOnUse" x1="619.1233" y1="263.8624" x2="487.472" y2="75.8449" gradientTransform="matrix(1 0 0 -1 0 624)">
		<stop  offset="0" style="stop-color:#00C5CD"/>
		<stop  offset="1" style="stop-color:#43CD80"/>
	</linearGradient>
	<path class="st19" d="M585.1,409c-0.2,0.1-0.4,0.2-0.6,0.3C584.7,409.2,584.9,409.1,585.1,409z"/>
	<path class="st3" d="M480.7,413.7v98.2c0,1.1-0.5,2.2-1.2,3c0.8-0.8,1.2-1.8,1.2-3L480.7,413.7c0-1.2,0.5-2.2,1.2-3
		C481.2,411.5,480.7,412.6,480.7,413.7z"/>
	
		<linearGradient id="SVGID_19_" gradientUnits="userSpaceOnUse" x1="574.4959" y1="295.1108" x2="442.8447" y2="107.0933" gradientTransform="matrix(1 0 0 -1 0 624)">
		<stop  offset="0" style="stop-color:#00C5CD"/>
		<stop  offset="1" style="stop-color:#43CD80"/>
	</linearGradient>
	<path class="st20" d="M480.7,413.7v98.2c0,1.1-0.5,2.2-1.2,3c0.8-0.8,1.2-1.8,1.2-3L480.7,413.7c0-1.2,0.5-2.2,1.2-3
		C481.2,411.5,480.7,412.6,480.7,413.7z"/>
	<path class="st3" d="M480.7,265.3L480.7,265.3v98.2c0,1.2,0.5,2.2,1.3,3c-0.7-0.8-1.2-1.8-1.2-2.9v-98.2
		C480.8,265.4,480.8,265.4,480.7,265.3c0-0.7-0.2-1.5-0.7-2.2c0,0,0,0,0,0C480.4,263.7,480.7,264.5,480.7,265.3z"/>
	
		<linearGradient id="SVGID_20_" gradientUnits="userSpaceOnUse" x1="505.16" y1="343.6604" x2="373.5088" y2="155.6428" gradientTransform="matrix(1 0 0 -1 0 624)">
		<stop  offset="0" style="stop-color:#00C5CD"/>
		<stop  offset="1" style="stop-color:#43CD80"/>
	</linearGradient>
	<path class="st21" d="M480.7,265.3L480.7,265.3v98.2c0,1.2,0.5,2.2,1.3,3c-0.7-0.8-1.2-1.8-1.2-2.9v-98.2
		C480.8,265.4,480.8,265.4,480.7,265.3c0-0.7-0.2-1.5-0.7-2.2c0,0,0,0,0,0C480.4,263.7,480.7,264.5,480.7,265.3z"/>
	<path class="st3" d="M480,263.1c0.5,0.7,0.7,1.5,0.8,2.3C480.8,264.5,480.5,263.7,480,263.1z"/>
	
		<linearGradient id="SVGID_21_" gradientUnits="userSpaceOnUse" x1="481.0069" y1="360.5726" x2="349.3557" y2="172.555" gradientTransform="matrix(1 0 0 -1 0 624)">
		<stop  offset="0" style="stop-color:#00C5CD"/>
		<stop  offset="1" style="stop-color:#43CD80"/>
	</linearGradient>
	<path class="st22" d="M480,263.1c0.5,0.7,0.7,1.5,0.8,2.3C480.8,264.5,480.5,263.7,480,263.1z"/>
	<path class="st3" d="M480.7,363.5c0,1.2,0.5,2.2,1.3,3c0,0,0,0,0,0C481.2,365.7,480.7,364.7,480.7,363.5L480.7,363.5z"/>
	
		<linearGradient id="SVGID_22_" gradientUnits="userSpaceOnUse" x1="528.9811" y1="326.9807" x2="397.3299" y2="138.9631" gradientTransform="matrix(1 0 0 -1 0 624)">
		<stop  offset="0" style="stop-color:#00C5CD"/>
		<stop  offset="1" style="stop-color:#43CD80"/>
	</linearGradient>
	<path class="st23" d="M480.7,363.5c0,1.2,0.5,2.2,1.3,3c0,0,0,0,0,0C481.2,365.7,480.7,364.7,480.7,363.5L480.7,363.5z"/>
	<path class="st3" d="M480,263.1C480,263.1,480,263.1,480,263.1c0.4,0.7,0.7,1.4,0.7,2.2v0C480.7,264.5,480.4,263.7,480,263.1z"/>
	
		<linearGradient id="SVGID_23_" gradientUnits="userSpaceOnUse" x1="480.9496" y1="360.6126" x2="349.2985" y2="172.595" gradientTransform="matrix(1 0 0 -1 0 624)">
		<stop  offset="0" style="stop-color:#00C5CD"/>
		<stop  offset="1" style="stop-color:#43CD80"/>
	</linearGradient>
	<path class="st24" d="M480,263.1C480,263.1,480,263.1,480,263.1c0.4,0.7,0.7,1.4,0.7,2.2v0C480.7,264.5,480.4,263.7,480,263.1z"/>
</g>
</svg>
