<?xml version="1.0" encoding="utf-8"?>
<!-- Generator: Adobe Illustrator 22.0.1, SVG Export Plug-In . SVG Version: 6.00 Build 0)  -->
<svg version="1.1" id="Laag_1" xmlns="http://www.w3.org/2000/svg" xmlns:xlink="http://www.w3.org/1999/xlink" x="0px" y="0px"
	 viewBox="0 0 622.8 608.2" style="enable-background:new 0 0 622.8 608.2;" xml:space="preserve">
<style type="text/css">
	.st0{fill:url(#SVGID_1_);}
	.st1{fill:url(#SVGID_2_);}
	.st2{fill:url(#SVGID_3_);}
	.st3{fill:url(#SVGID_4_);}
	.st4{fill:url(#SVGID_5_);}
	.st5{fill:url(#SVGID_6_);}
	.st6{fill:url(#SVGID_7_);}
	.st7{fill:url(#SVGID_8_);}
	.st8{fill:url(#SVGID_9_);}
	.st9{fill:url(#SVGID_10_);}
	.st10{fill:url(#SVGID_11_);}
	.st11{fill:url(#SVGID_12_);}
	.st12{fill:none;}
	.st13{fill:url(#SVGID_13_);}
	.st14{fill:url(#SVGID_14_);}
	.st15{fill:url(#SVGID_15_);}
</style>
<linearGradient id="SVGID_1_" gradientUnits="userSpaceOnUse" x1="941.1235" y1="41.3727" x2="956.0161" y2="26.4801">
	<stop  offset="0" style="stop-color:#29ABE2"/>
	<stop  offset="0.69" style="stop-color:#BFDB59"/>
	<stop  offset="0.9949" style="stop-color:#FCEE21"/>
</linearGradient>
<polygon class="st0" points="948.3,33.7 948.8,34.2 948.3,33.7 "/>
<linearGradient id="SVGID_2_" gradientUnits="userSpaceOnUse" x1="941.1235" y1="41.3727" x2="956.0161" y2="26.4801">
	<stop  offset="0" style="stop-color:#43CD80"/>
	<stop  offset="1" style="stop-color:#00C5CD"/>
</linearGradient>
<polygon class="st1" points="948.3,33.7 948.8,34.2 948.3,33.7 "/>
<linearGradient id="SVGID_3_" gradientUnits="userSpaceOnUse" x1="917.0227" y1="68.2936" x2="982.9407" y2="2.3756">
	<stop  offset="0" style="stop-color:#00CD66"/>
	<stop  offset="0.6237" style="stop-color:#15BB93"/>
	<stop  offset="1" style="stop-color:#20B2AA"/>
</linearGradient>
<polygon class="st2" points="951.1,36.5 951.1,36.5 948.8,34.2 "/>
<linearGradient id="SVGID_4_" gradientUnits="userSpaceOnUse" x1="952.2698" y1="36.5009" x2="957.301" y2="31.4696" gradientTransform="matrix(0.7071 0.7071 -0.7071 0.7071 299.2988 -663.8318)">
	<stop  offset="0" style="stop-color:#00CD66"/>
	<stop  offset="0.6237" style="stop-color:#15BB93"/>
	<stop  offset="1" style="stop-color:#20B2AA"/>
</linearGradient>
<polygon class="st3" points="951.1,36.5 951.1,36.5 948.8,34.2 "/>
<linearGradient id="SVGID_5_" gradientUnits="userSpaceOnUse" x1="917.0227" y1="68.2936" x2="982.9407" y2="2.3756">
	<stop  offset="0" style="stop-color:#29ABE2"/>
	<stop  offset="0.69" style="stop-color:#BFDB59"/>
	<stop  offset="0.9949" style="stop-color:#FCEE21"/>
</linearGradient>
<polygon class="st4" points="951.1,36.5 951.1,36.5 948.8,34.2 "/>
<linearGradient id="SVGID_6_" gradientUnits="userSpaceOnUse" x1="917.0227" y1="68.2936" x2="982.9407" y2="2.3756">
	<stop  offset="0" style="stop-color:#43CD80"/>
	<stop  offset="1" style="stop-color:#00C5CD"/>
</linearGradient>
<polygon class="st5" points="951.1,36.5 951.1,36.5 948.8,34.2 "/>
<linearGradient id="SVGID_7_" gradientUnits="userSpaceOnUse" x1="887.3898" y1="127.0641" x2="964.8732" y2="49.5808">
	<stop  offset="0" style="stop-color:#00CD66"/>
	<stop  offset="0.6237" style="stop-color:#15BB93"/>
	<stop  offset="1" style="stop-color:#20B2AA"/>
</linearGradient>
<path class="st6" d="M960.1,45.4l8.9,8.9C966.4,51,963.4,48,960.1,45.4z"/>
<linearGradient id="SVGID_8_" gradientUnits="userSpaceOnUse" x1="-122.9317" y1="1137.3857" x2="2052.1135" y2="-1037.6595">
	<stop  offset="0" style="stop-color:#29ABE2"/>
	<stop  offset="0.69" style="stop-color:#BFDB59"/>
	<stop  offset="0.9949" style="stop-color:#FCEE21"/>
</linearGradient>
<path class="st7" d="M960.1,45.4l8.9,8.9C966.4,51,963.4,48,960.1,45.4z"/>
<linearGradient id="SVGID_9_" gradientUnits="userSpaceOnUse" x1="606.5798" y1="407.8742" x2="1197.8467" y2="-183.3927">
	<stop  offset="0" style="stop-color:#43CD80"/>
	<stop  offset="1" style="stop-color:#00C5CD"/>
</linearGradient>
<path class="st8" d="M960.1,45.4l8.9,8.9C966.4,51,963.4,48,960.1,45.4z"/>
<linearGradient id="SVGID_10_" gradientUnits="userSpaceOnUse" x1="935.3604" y1="327.3126" x2="1451.418" y2="-188.745">
	<stop  offset="0" style="stop-color:#00CD66"/>
	<stop  offset="0.6237" style="stop-color:#15BB93"/>
	<stop  offset="1" style="stop-color:#20B2AA"/>
</linearGradient>
<path class="st9" d="M1210.1,52.6l5.9-5.9C1213.9,48.6,1211.9,50.5,1210.1,52.6z"/>
<linearGradient id="SVGID_11_" gradientUnits="userSpaceOnUse" x1="-13427.499" y1="14690.1719" x2="11073.71" y2="-9811.0371">
	<stop  offset="0" style="stop-color:#29ABE2"/>
	<stop  offset="0.69" style="stop-color:#BFDB59"/>
	<stop  offset="0.9949" style="stop-color:#FCEE21"/>
</linearGradient>
<path class="st10" d="M1210.1,52.6l5.9-5.9C1213.9,48.6,1211.9,50.5,1210.1,52.6z"/>
<linearGradient id="SVGID_12_" gradientUnits="userSpaceOnUse" x1="730.6893" y1="531.9837" x2="1321.9563" y2="-59.2832">
	<stop  offset="0" style="stop-color:#43CD80"/>
	<stop  offset="1" style="stop-color:#00C5CD"/>
</linearGradient>
<path class="st11" d="M1210.1,52.6l5.9-5.9C1213.9,48.6,1211.9,50.5,1210.1,52.6z"/>
<path class="st12" d="M784.6,154.2L784.6,154.2C784.6,154.2,784.6,154.2,784.6,154.2L784.6,154.2z"/>
<linearGradient id="SVGID_13_" gradientUnits="userSpaceOnUse" x1="723.1578" y1="215.8125" x2="846.2047" y2="92.7656">
	<stop  offset="0" style="stop-color:#43CD80"/>
	<stop  offset="1" style="stop-color:#00C5CD"/>
</linearGradient>
<path class="st13" d="M784.6,154.2c0,0,0.1,0,0.1,0.1C784.7,154.3,784.7,154.3,784.6,154.2L784.6,154.2z"/>
<linearGradient id="SVGID_14_" gradientUnits="userSpaceOnUse" x1="783.5977" y1="155.3726" x2="801.2234" y2="137.7469">
	<stop  offset="0" style="stop-color:#43CD80"/>
	<stop  offset="1" style="stop-color:#00C5CD"/>
</linearGradient>
<path class="st14" d="M784.6,154.2c0,0,0.1,0,0.1,0.1C784.7,154.3,784.7,154.3,784.6,154.2L784.6,154.2z"/>
<linearGradient id="SVGID_15_" gradientUnits="userSpaceOnUse" x1="31.65" y1="600.5931" x2="609.2119" y2="23.0313">
	<stop  offset="0" style="stop-color:#43CD80"/>
	<stop  offset="1" style="stop-color:#00C5CD"/>
</linearGradient>
<path class="st15" d="M570.2,21h-82.6c-13.5,0-25.9,4.9-35.5,13.1l-5.9,5.9L332.7,152.6l0,0c-4.5,4.5-11.7,4.5-16.2,0l-0.9-0.9l0,0
	l-50.9-50.9l-59.6-59.2l-8.9-8.9c-9.3-7.3-21.1-11.7-33.9-11.7H81c-19.7,0-35.7,16-35.7,35.7v366.1c0,10.4,12.8,15.4,19.8,7.7
	l112-121.7c4.6-5,7.1-11.5,7.1-18.3v-97.7c0-11.8,14.2-17.7,22.5-9.4l98.2,97.5c10.6,10.6,27.8,10.6,38.5,0l101.3-100.6
	c7.2-7.2,19.5-2.1,19.5,8.1V438c0,7.2-6.6,12.6-13.7,11.2l-312-62.8c-7.2-1.4-14.6,1-19.6,6.4L24,496.1
	c-14.8,16.1-4.9,42.2,16.8,44.4l521.8,53.6c23.1,2.4,43.2-15.8,43.2-39v-95.5v0V56.7C605.9,37,589.9,21,570.2,21z"/>
</svg>
